<svg xmlns="http://www.w3.org/2000/svg" xmlns:svg="http://www.w3.org/2000/svg" id="svg10" width="388.976" height="156.643" version="1.1" viewBox="0 0 388.976 156.643"><metadata id="metadata16"/><defs id="defs14"><marker style="overflow:visible" id="marker6175" orient="auto" refX="0" refY="0"><path style="fill:#2c5aa0;fill-opacity:1;fill-rule:evenodd;stroke:#2c5aa0;stroke-width:1.00000003pt;stroke-opacity:1" id="path6173" d="M 0,0 5,-5 -12.5,0 5,5 Z" transform="matrix(0.8,0,0,0.8,10,0)"/></marker><marker style="overflow:visible" id="marker6111" orient="auto" refX="0" refY="0"><path style="fill:#2c5aa0;fill-opacity:1;fill-rule:evenodd;stroke:#2c5aa0;stroke-width:1.00000003pt;stroke-opacity:1" id="path6109" d="M 0,0 5,-5 -12.5,0 5,5 Z" transform="matrix(-0.8,0,0,-0.8,-10,0)"/></marker><marker id="Arrow1Mend" orient="auto" refX="0" refY="0" style="overflow:visible"><path id="path834" d="M 0,0 5,-5 -12.5,0 5,5 Z" transform="matrix(-0.4,0,0,-0.4,-4,0)" style="fill:#000;fill-opacity:1;fill-rule:evenodd;stroke:#000;stroke-width:1.00000003pt;stroke-opacity:1"/></marker><marker id="Arrow2Lstart" orient="auto" refX="0" refY="0" style="overflow:visible"><path id="path843" d="M 8.7185878,4.0337352 -2.2072895,0.01601326 8.7185884,-4.0017078 c -1.7454984,2.3720609 -1.7354408,5.6174519 -6e-7,8.035443 z" transform="matrix(1.1,0,0,1.1,1.1,0)" style="fill:#000;fill-opacity:1;fill-rule:evenodd;stroke:#000;stroke-width:.625;stroke-linejoin:round;stroke-opacity:1"/></marker><marker id="marker4493" orient="auto" refX="0" refY="0" style="overflow:visible"><path id="path4491" d="m -2.5,-1 c 0,2.76 -2.24,5 -5,5 -2.76,0 -5,-2.24 -5,-5 0,-2.76 2.24,-5 5,-5 2.76,0 5,2.24 5,5 z" transform="matrix(0.4,0,0,0.4,2.96,0.4)" style="fill:#2c5aa0;fill-opacity:1;fill-rule:evenodd;stroke:#2c5aa0;stroke-width:1.00000003pt;stroke-opacity:1"/></marker><marker id="DotL" orient="auto" refX="0" refY="0" style="overflow:visible"><path id="path886" d="m -2.5,-1 c 0,2.76 -2.24,5 -5,5 -2.76,0 -5,-2.24 -5,-5 0,-2.76 2.24,-5 5,-5 2.76,0 5,2.24 5,5 z" transform="matrix(0.8,0,0,0.8,5.92,0.8)" style="fill:#3771c8;fill-opacity:1;fill-rule:evenodd;stroke:#3771c8;stroke-width:1.00000003pt;stroke-opacity:1"/></marker><marker id="marker4493-8" orient="auto" refX="0" refY="0" style="overflow:visible"><path id="path4491-3" d="m -2.5,-1 c 0,2.76 -2.24,5 -5,5 -2.76,0 -5,-2.24 -5,-5 0,-2.76 2.24,-5 5,-5 2.76,0 5,2.24 5,5 z" transform="matrix(0.4,0,0,0.4,2.96,0.4)" style="fill:#2c5aa0;fill-opacity:1;fill-rule:evenodd;stroke:#2c5aa0;stroke-width:1.00000003pt;stroke-opacity:1"/></marker></defs><rect id="rect2" width="388.976" height="97.244" x="0" y="59.399" style="fill:#afc6e9;stroke-width:1.9448812"/><rect id="rect4" width="377.307" height="85.575" x="5.835" y="65.234" style="fill:#d7e3f4;stroke-width:1.9448812"/><rect id="rect6" width="361.748" height="70.016" x="13.614" y="73.013" style="fill:#afc6e9;stroke-width:1.9448812"/><rect id="rect8" width="147.507" height="58.346" x="19.449" y="78.848" style="fill:#fff;stroke-width:1.9448812"/><text style="font-style:normal;font-variant:normal;font-weight:400;font-stretch:normal;font-size:15px;line-height:25px;font-family:Oswald;-inkscape-font-specification:Oswald;text-align:end;letter-spacing:0;word-spacing:0;text-anchor:end;fill:#2c5aa0;fill-opacity:1;stroke:none;stroke-width:1px;stroke-linecap:butt;stroke-linejoin:miter;stroke-opacity:1" id="text8945" x="91.284" y="112.895" xml:space="preserve"><tspan id="tspan8943" x="91.284" y="112.895" style="font-style:normal;font-variant:normal;font-weight:400;font-stretch:normal;font-size:16px;font-family:sans-serif;-inkscape-font-specification:sans-serif;text-align:center;text-anchor:middle;fill:#2c5aa0">Foreground</tspan></text><text id="text9104" x="290.828" y="112.273" xml:space="preserve" style="font-style:normal;font-variant:normal;font-weight:400;font-stretch:normal;font-size:15px;line-height:25px;font-family:Oswald;-inkscape-font-specification:Oswald;text-align:end;letter-spacing:0;word-spacing:0;text-anchor:end;fill:#2c5aa0;fill-opacity:1;stroke:none;stroke-width:1px;stroke-linecap:butt;stroke-linejoin:miter;stroke-opacity:1"><tspan style="font-style:normal;font-variant:normal;font-weight:400;font-stretch:normal;font-size:16px;font-family:sans-serif;-inkscape-font-specification:sans-serif;text-align:center;text-anchor:middle;fill:#2c5aa0" id="tspan9102" x="290.828" y="112.273">Background</tspan></text><path style="fill:#2c5aa0;fill-rule:evenodd;stroke:#2c5aa0;stroke-width:2;stroke-linecap:butt;stroke-linejoin:miter;stroke-miterlimit:4;stroke-dasharray:none;stroke-opacity:1;marker-end:url(#marker4493-8)" id="path4489" d="M 195.78238,16.555605 V 68.410796"/><text style="font-style:normal;font-variant:normal;font-weight:400;font-stretch:normal;font-size:15px;line-height:25px;font-family:Oswald;-inkscape-font-specification:Oswald;text-align:end;letter-spacing:0;word-spacing:0;text-anchor:end;fill:#2c5aa0;fill-opacity:1;stroke:none;stroke-width:1px;stroke-linecap:butt;stroke-linejoin:miter;stroke-opacity:1" id="text4965" x="194.062" y="12.16" xml:space="preserve"><tspan id="tspan4963" x="194.062" y="12.16" style="font-style:normal;font-variant:normal;font-weight:400;font-stretch:normal;font-size:16px;font-family:sans-serif;-inkscape-font-specification:sans-serif;text-align:center;text-anchor:middle;fill:#2c5aa0">Border</tspan></text></svg>