<svg xmlns="http://www.w3.org/2000/svg" xmlns:svg="http://www.w3.org/2000/svg" id="svg2" width="776.174" height="157.421" version="1.1" viewBox="0 0 776.174 157.421"><metadata id="metadata8"/><path style="opacity:1;fill:#fff;fill-opacity:1;stroke:none;stroke-width:2.73310971;stroke-linecap:square;stroke-linejoin:miter;stroke-miterlimit:4;stroke-dasharray:none;stroke-dashoffset:0;stroke-opacity:1;paint-order:normal" id="rect850" d="m 3.3671875,3.3671875 c 50.2291665,0 100.4583325,0 150.6875025,0 0,50.2291665 0,100.4583325 0,150.6875025 -50.22917,0 -100.458336,0 -150.6875025,0 0,-50.22917 0,-100.458336 0,-150.6875025 z"/><g id="g1038" transform="translate(-0.47265851,-180.8634)"><rect id="rect871" width="109.652" height="27.413" x="23.463" y="257.757" style="fill:#000;stroke-width:.5482614"/><rect id="rect873" width="106.363" height="24.124" x="25.108" y="259.401" style="fill:#fff;fill-opacity:1;stroke-width:.5482614"/><rect id="rect875" width="101.977" height="19.737" x="27.301" y="261.594" style="fill:#000;stroke-width:.5482614"/><rect id="rect877" width="65.791" height="16.448" x="28.946" y="263.239" style="fill:#fff;fill-opacity:1;stroke-width:.5482614"/><rect id="rect879" width="31.251" height="16.448" x="96.382" y="263.239" style="fill:#000;stroke-width:.5482614"/></g><path style="opacity:1;fill:#fff;fill-opacity:1;stroke:none;stroke-width:2.73310971;stroke-linecap:square;stroke-linejoin:miter;stroke-miterlimit:4;stroke-dasharray:none;stroke-dashoffset:0;stroke-opacity:1;paint-order:normal" id="rect931" d="m 158.05469,3.3671875 c 50.22916,0 100.45833,0 150.6875,0 0,50.2291665 0,100.4583325 0,150.6875025 -50.22917,0 -100.45834,0 -150.6875,0 0,-50.22917 0,-100.458336 0,-150.6875025 z"/><rect id="rect933" width="109.652" height="27.413" x="177.679" y="76.893" style="fill:#000;stroke-width:.5482614"/><rect id="rect935" width="106.363" height="24.124" x="179.324" y="78.538" style="fill:#555;fill-opacity:1;stroke-width:.5482614"/><rect id="rect937" width="101.977" height="19.737" x="181.517" y="80.731" style="fill:#000;stroke-width:.5482614"/><rect id="rect939" width="65.791" height="16.448" x="183.161" y="82.376" style="fill:#555;fill-opacity:1;stroke-width:.5482614"/><rect id="rect941" width="31.251" height="16.448" x="250.598" y="82.376" style="fill:#000;stroke-width:.5482614"/><path style="opacity:1;fill:#fff;fill-opacity:1;stroke:none;stroke-width:2.73310971;stroke-linecap:square;stroke-linejoin:miter;stroke-miterlimit:4;stroke-dasharray:none;stroke-dashoffset:0;stroke-opacity:1;paint-order:normal" id="rect953" d="m 312.74219,3.3671875 c 50.22982,0 100.45963,0 150.68945,0 0,50.2291665 0,100.4583325 0,150.6875025 -50.22982,0 -100.45963,0 -150.68945,0 0,-50.22917 0,-100.458336 0,-150.6875025 z"/><rect style="fill:#000;stroke-width:.5482614" id="rect955" width="109.652" height="27.413" x="332.367" y="76.893"/><rect style="fill:red;fill-opacity:1;stroke-width:.5482614" id="rect957" width="106.363" height="24.124" x="334.012" y="78.538"/><rect style="fill:#000;stroke-width:.5482614" id="rect959" width="101.977" height="19.737" x="336.205" y="80.731"/><rect style="fill:#fff;fill-opacity:1;stroke-width:.5482614" id="rect961" width="65.791" height="16.448" x="337.85" y="82.376"/><rect style="fill:red;stroke-width:.5482614" id="rect963" width="31.251" height="16.448" x="405.286" y="82.376"/><path style="opacity:1;fill:#fff;fill-opacity:1;stroke:none;stroke-width:2.73310971;stroke-linecap:square;stroke-linejoin:miter;stroke-miterlimit:4;stroke-dasharray:none;stroke-dashoffset:0;stroke-opacity:1;paint-order:normal" id="rect996" d="m 622.03493,3.4998191 c 50.22982,0 100.45964,0 150.68945,0 0,50.2291669 0,100.4583309 0,150.6875009 -50.22981,0 -100.45963,0 -150.68945,0 0,-50.22917 0,-100.458334 0,-150.6875009 z"/><path style="opacity:1;fill:#fff;fill-opacity:1;stroke:none;stroke-width:2.73310971;stroke-linecap:square;stroke-linejoin:miter;stroke-miterlimit:4;stroke-dasharray:none;stroke-dashoffset:0;stroke-opacity:1;paint-order:normal" id="rect1023" d="m 467.43164,3.3671875 c 50.22917,0 100.45833,0 150.6875,0 0,50.2291665 0,100.4583325 0,150.6875025 -50.22917,0 -100.45833,0 -150.6875,0 0,-50.22917 0,-100.458336 0,-150.6875025 z"/><g id="g1050" transform="rotate(-90,223.94658,-50.436307)"><rect style="fill:#000;stroke-width:.5482614" id="rect1040" width="109.652" height="27.413" x="23.463" y="257.757"/><rect style="fill:#fff;fill-opacity:1;stroke-width:.5482614" id="rect1042" width="106.363" height="24.124" x="25.108" y="259.401"/><rect style="fill:#000;stroke-width:.5482614" id="rect1044" width="101.977" height="19.737" x="27.301" y="261.594"/><rect style="fill:#fff;fill-opacity:1;stroke-width:.5482614" id="rect1046" width="65.791" height="16.448" x="28.946" y="263.239"/><rect style="fill:#000;stroke-width:.5482614" id="rect1048" width="31.251" height="16.448" x="96.382" y="263.239"/></g><rect style="opacity:1;fill:#222;fill-opacity:1;stroke:none;stroke-width:3.71352148;stroke-linecap:square;stroke-linejoin:miter;stroke-miterlimit:4;stroke-dasharray:none;stroke-dashoffset:0;stroke-opacity:1;paint-order:normal" id="rect4577" width="141.425" height="23.062" x="627.205" y="70.42"/><rect style="opacity:1;fill:#285577;fill-opacity:1;stroke:none;stroke-width:1.36487532;stroke-linecap:square;stroke-linejoin:round;stroke-miterlimit:4;stroke-dasharray:none;stroke-dashoffset:0;stroke-opacity:1;paint-order:normal" id="rect4579" width="74.757" height="21.332" x="628.116" y="71.259"/><rect id="rect4581" width="141.425" height="23.062" x="627.205" y="70.42" style="opacity:1;fill:none;fill-opacity:1;stroke:#4c7899;stroke-width:2;stroke-linecap:square;stroke-linejoin:miter;stroke-miterlimit:4;stroke-dasharray:none;stroke-dashoffset:0;stroke-opacity:1;paint-order:normal"/><rect style="opacity:1;fill:#b7bbaf;fill-opacity:1;stroke:#626758;stroke-width:3.71352148;stroke-linecap:square;stroke-linejoin:miter;stroke-miterlimit:4;stroke-dasharray:none;stroke-dashoffset:0;stroke-opacity:1;paint-order:normal" id="rect4583" width="127.966" height="18.622" x="633.671" y="45.059"/><rect style="opacity:1;fill:#626758;fill-opacity:1;stroke:none;stroke-width:1.36487532;stroke-linecap:square;stroke-linejoin:round;stroke-miterlimit:4;stroke-dasharray:none;stroke-dashoffset:0;stroke-opacity:1;paint-order:normal" id="rect4585" width="86.97" height="7.474" x="638.964" y="50.661"/><rect id="rect4597" width="109.652" height="15.275" x="642.292" y="99.816" style="fill:#c3c3c3;fill-opacity:1;stroke-width:.5482614"/><rect id="rect4599" width="106.363" height="11.878" x="643.937" y="101.461" style="fill:#606060;fill-opacity:1;stroke-width:.5482614"/><rect id="rect4601" width="101.977" height="7.76" x="646.13" y="103.654" style="fill:#fff;fill-opacity:1;stroke-width:.5482614"/><rect id="rect4603" width="65.791" height="4.711" x="647.774" y="105.299" style="fill:#c235df;fill-opacity:1;stroke-width:.5482614"/><rect style="fill:#000;fill-opacity:1;stroke-width:.5482614" id="rect4607" width="76.457" height="15.275" x="684.389" y="124.522"/><rect id="rect4615" width="51.178" height="15.275" x="633.211" y="124.522" style="fill:#f80;fill-opacity:1;stroke-width:.5482614"/><text style="font-style:normal;font-variant:normal;font-weight:400;font-stretch:normal;font-size:13.33333302px;line-height:25px;font-family:sans-serif;-inkscape-font-specification:sans-serif;text-align:center;letter-spacing:0;word-spacing:0;text-anchor:middle;fill:#000;fill-opacity:1;stroke:none;stroke-width:1px;stroke-linecap:butt;stroke-linejoin:miter;stroke-opacity:1" id="text873" x="80.474" y="27.374" xml:space="preserve"><tspan id="tspan871" x="80.474" y="27.374" style="font-size:16px">normal</tspan></text><text id="text880" x="232.726" y="27.374" xml:space="preserve" style="font-style:normal;font-variant:normal;font-weight:400;font-stretch:normal;font-size:13.33333302px;line-height:25px;font-family:sans-serif;-inkscape-font-specification:sans-serif;text-align:center;letter-spacing:0;word-spacing:0;text-anchor:middle;fill:#000;fill-opacity:1;stroke:none;stroke-width:1px;stroke-linecap:butt;stroke-linejoin:miter;stroke-opacity:1"><tspan style="font-size:16px" id="tspan878" x="232.726" y="27.374">&quot;mute&quot; mode</tspan></text><text id="text894" x="388.516" y="27.374" xml:space="preserve" style="font-style:normal;font-variant:normal;font-weight:400;font-stretch:normal;font-size:13.33333302px;line-height:25px;font-family:sans-serif;-inkscape-font-specification:sans-serif;text-align:center;letter-spacing:0;word-spacing:0;text-anchor:middle;fill:#000;fill-opacity:1;stroke:none;stroke-width:1px;stroke-linecap:butt;stroke-linejoin:miter;stroke-opacity:1"><tspan style="font-size:16px" id="tspan892" x="388.516" y="27.374">overflow</tspan></text><text style="font-style:normal;font-variant:normal;font-weight:400;font-stretch:normal;font-size:13.33333302px;line-height:25px;font-family:sans-serif;-inkscape-font-specification:sans-serif;text-align:center;letter-spacing:0;word-spacing:0;text-anchor:middle;fill:#000;fill-opacity:1;stroke:none;stroke-width:1px;stroke-linecap:butt;stroke-linejoin:miter;stroke-opacity:1" id="text898" x="543.632" y="27.374" xml:space="preserve"><tspan id="tspan896" x="543.632" y="27.374" style="font-size:16px">vertical</tspan></text><text id="text902" x="699.168" y="27.374" xml:space="preserve" style="font-style:normal;font-variant:normal;font-weight:400;font-stretch:normal;font-size:13.33333302px;line-height:25px;font-family:sans-serif;-inkscape-font-specification:sans-serif;text-align:center;letter-spacing:0;word-spacing:0;text-anchor:middle;fill:#000;fill-opacity:1;stroke:none;stroke-width:1px;stroke-linecap:butt;stroke-linejoin:miter;stroke-opacity:1"><tspan style="font-size:16px" id="tspan900" x="699.168" y="27.374">custom styles</tspan></text></svg>